<?xml version="1.0" ?><svg enable-background="new 0 0 32 32" height="32px" id="svg2" version="1.1" viewBox="0 0 32 32" width="32px" xml:space="preserve" xmlns="http://www.w3.org/2000/svg" xmlns:cc="http://creativecommons.org/ns#" xmlns:dc="http://purl.org/dc/elements/1.1/" xmlns:inkscape="http://www.inkscape.org/namespaces/inkscape" xmlns:rdf="http://www.w3.org/1999/02/22-rdf-syntax-ns#" xmlns:sodipodi="http://sodipodi.sourceforge.net/DTD/sodipodi-0.dtd" xmlns:svg="http://www.w3.org/2000/svg"><g id="background"><rect fill="none" height="32" width="32"/></g><g id="mailbox_x5F_down"><path d="M30.482,18c-1.069-1.598-2.64-2.825-4.482-3.477V4H6v16h8.522C14.19,20.939,14,21.946,14,23c0,0.338,0.022,0.671,0.059,1H4   v-6H0v10h15.518c1.614,2.411,4.361,3.999,7.482,4c3.12-0.001,5.867-1.589,7.481-4H32V18H30.482z M22,6l-6,5.44L10,6H22z M8,18   V7.081L16,14l8-7v7.059C23.671,14.022,23.338,14,23,14c-3.122,0-5.869,1.588-7.483,4H8z M23,29.883   c-3.801-0.009-6.876-3.084-6.884-6.883c0.008-3.801,3.083-6.876,6.884-6.884c3.799,0.008,6.874,3.083,6.883,6.884   C29.874,26.799,26.799,29.874,23,29.883z"/><polygon points="27,22 19,22 23,26  "/></g></svg>