<svg id="visual" viewBox="0 0 900 600" width="900" height="600" xmlns="http://www.w3.org/2000/svg" xmlns:xlink="http://www.w3.org/1999/xlink" version="1.1"><rect x="0" y="0" width="900" height="600" fill="#ffffff"></rect><path d="M0 411L21.5 400.8C43 390.7 86 370.3 128.8 369.2C171.7 368 214.3 386 257.2 395.7C300 405.3 343 406.7 385.8 403.8C428.7 401 471.3 394 514.2 388.3C557 382.7 600 378.3 642.8 387.7C685.7 397 728.3 420 771.2 426C814 432 857 421 878.5 415.5L900 410L900 601L878.5 601C857 601 814 601 771.2 601C728.3 601 685.7 601 642.8 601C600 601 557 601 514.2 601C471.3 601 428.7 601 385.8 601C343 601 300 601 257.2 601C214.3 601 171.7 601 128.8 601C86 601 43 601 21.5 601L0 601Z" fill="#3e70b7"></path><path d="M0 435L21.5 432.3C43 429.7 86 424.3 128.8 426.5C171.7 428.7 214.3 438.3 257.2 440.7C300 443 343 438 385.8 437C428.7 436 471.3 439 514.2 446.2C557 453.3 600 464.7 642.8 470.7C685.7 476.7 728.3 477.3 771.2 465C814 452.7 857 427.3 878.5 414.7L900 402L900 601L878.5 601C857 601 814 601 771.2 601C728.3 601 685.7 601 642.8 601C600 601 557 601 514.2 601C471.3 601 428.7 601 385.8 601C343 601 300 601 257.2 601C214.3 601 171.7 601 128.8 601C86 601 43 601 21.5 601L0 601Z" fill="#6c64b5"></path><path d="M0 481L21.5 483.3C43 485.7 86 490.3 128.8 485C171.7 479.7 214.3 464.3 257.2 456.5C300 448.7 343 448.3 385.8 450C428.7 451.7 471.3 455.3 514.2 456.8C557 458.3 600 457.7 642.8 464.5C685.7 471.3 728.3 485.7 771.2 486.5C814 487.3 857 474.7 878.5 468.3L900 462L900 601L878.5 601C857 601 814 601 771.2 601C728.3 601 685.7 601 642.8 601C600 601 557 601 514.2 601C471.3 601 428.7 601 385.8 601C343 601 300 601 257.2 601C214.3 601 171.7 601 128.8 601C86 601 43 601 21.5 601L0 601Z" fill="#9452a7"></path><path d="M0 528L21.5 527.5C43 527 86 526 128.8 518.8C171.7 511.7 214.3 498.3 257.2 497.5C300 496.7 343 508.3 385.8 512C428.7 515.7 471.3 511.3 514.2 510.5C557 509.7 600 512.3 642.8 517.5C685.7 522.7 728.3 530.3 771.2 532.2C814 534 857 530 878.5 528L900 526L900 601L878.5 601C857 601 814 601 771.2 601C728.3 601 685.7 601 642.8 601C600 601 557 601 514.2 601C471.3 601 428.7 601 385.8 601C343 601 300 601 257.2 601C214.3 601 171.7 601 128.8 601C86 601 43 601 21.5 601L0 601Z" fill="#b33b8c"></path><path d="M0 536L21.5 539.2C43 542.3 86 548.7 128.8 552.5C171.7 556.3 214.3 557.7 257.2 555.3C300 553 343 547 385.8 548.2C428.7 549.3 471.3 557.7 514.2 555C557 552.3 600 538.7 642.8 537C685.7 535.3 728.3 545.7 771.2 546.8C814 548 857 540 878.5 536L900 532L900 601L878.5 601C857 601 814 601 771.2 601C728.3 601 685.7 601 642.8 601C600 601 557 601 514.2 601C471.3 601 428.7 601 385.8 601C343 601 300 601 257.2 601C214.3 601 171.7 601 128.8 601C86 601 43 601 21.5 601L0 601Z" fill="#c62368"></path></svg>